<svg width="1024" height="1024" viewBox="0 0 1024 1024" xmlns="http://www.w3.org/2000/svg">
  <defs>
    <linearGradient id="bg" x1="0" y1="0" x2="1" y2="1">
      <stop offset="0" stop-color="#3556F5"/>
      <stop offset="0.55" stop-color="#1E32C8"/>
      <stop offset="1" stop-color="#0A1560"/>
    </linearGradient>
    <radialGradient id="glow" cx="0.5" cy="0.42" r="0.65">
      <stop offset="0" stop-color="#7FB4FF" stop-opacity="0.35"/>
      <stop offset="1" stop-color="#7FB4FF" stop-opacity="0"/>
    </radialGradient>
  </defs>

  <rect width="1024" height="1024" fill="url(#bg)"/>
  <rect width="1024" height="1024" fill="url(#glow)"/>

  <g stroke="#FFFFFF" stroke-opacity="0.12" stroke-width="4" stroke-linecap="round">
    <line x1="104" y1="168" x2="216" y2="108"/>
    <line x1="216" y1="108" x2="160" y2="252"/>
    <line x1="896" y1="836" x2="820" y2="912"/>
    <line x1="896" y1="836" x2="936" y2="742"/>
    <line x1="884" y1="150" x2="806" y2="104"/>
  </g>
  <g fill="#FFFFFF" fill-opacity="0.16">
    <circle cx="104" cy="168" r="11"/>
    <circle cx="216" cy="108" r="8"/>
    <circle cx="160" cy="252" r="7"/>
    <circle cx="896" cy="836" r="11"/>
    <circle cx="820" cy="912" r="7"/>
    <circle cx="936" cy="742" r="8"/>
    <circle cx="884" cy="150" r="9"/>
    <circle cx="806" cy="104" r="6"/>
    <circle cx="120" cy="880" r="9"/>
  </g>
</svg>
